<svg width="900" height="400" viewBox="0 0 900 400" xmlns="http://www.w3.org/2000/svg" preserveAspectRatio="xMidYMax slice">
  <defs>
    <linearGradient id="bg" x1="0" y1="0" x2="0" y2="1">
      <stop offset="0" stop-color="#e6ebe9" />
      <stop offset="1" stop-color="#ffffff" />
    </linearGradient>
  </defs>
  <rect width="900" height="400" fill="url(#bg)" />
  <g fill="none" stroke="#9fb0ac" stroke-width="1" opacity="0.55">
    <rect x="40" y="160" width="90" height="240" />
    <rect x="70" y="100" width="40" height="300" />
    <rect x="150" y="200" width="70" height="200" />
    <rect x="190" y="120" width="110" height="280" />
    <rect x="230" y="60" width="50" height="340" />
    <rect x="320" y="180" width="80" height="220" />
    <rect x="360" y="90" width="60" height="310" />
    <rect x="430" y="150" width="100" height="250" />
    <rect x="470" y="40" width="45" height="360" />
    <rect x="540" y="190" width="90" height="210" />
    <rect x="590" y="110" width="70" height="290" />
    <rect x="660" y="160" width="110" height="240" />
    <rect x="700" y="70" width="50" height="330" />
    <rect x="780" y="200" width="80" height="200" />
    <rect x="820" y="130" width="50" height="270" />
    <line x1="0" y1="400" x2="900" y2="400" />
    <line x1="0" y1="398" x2="900" y2="398" />
    <line x1="0" y1="395" x2="900" y2="395" />
  </g>
</svg>
